<svg width="20" height="21" viewBox="0 0 20 21" fill="none" xmlns="http://www.w3.org/2000/svg">
<path opacity="0.2" d="M15 7.90039C15 8.8893 14.7068 9.856 14.1574 10.6782C13.6079 11.5005 12.8271 12.1414 11.9134 12.5198C10.9998 12.8982 9.99446 12.9972 9.02455 12.8043C8.05465 12.6114 7.16373 12.1352 6.46447 11.4359C5.76521 10.7367 5.289 9.84575 5.09608 8.87584C4.90315 7.90594 5.00217 6.9006 5.3806 5.98697C5.75904 5.07334 6.39991 4.29245 7.22215 3.74304C8.0444 3.19364 9.0111 2.90039 10 2.90039C11.3261 2.90039 12.5979 3.42717 13.5355 4.36486C14.4732 5.30254 15 6.57431 15 7.90039Z" fill="white"/>
<path d="M18.0407 16.9631C16.8508 14.906 15.0172 13.431 12.8774 12.7318C13.9358 12.1017 14.7582 11.1416 15.2182 9.99884C15.6781 8.85612 15.7503 7.594 15.4235 6.40631C15.0968 5.21862 14.3892 4.17103 13.4094 3.42441C12.4296 2.67779 11.2318 2.27344 10 2.27344C8.76821 2.27344 7.57044 2.67779 6.59067 3.42441C5.6109 4.17103 4.90331 5.21862 4.57654 6.40631C4.24978 7.594 4.32193 8.85612 4.78189 9.99884C5.24186 11.1416 6.06422 12.1017 7.12268 12.7318C4.98284 13.4303 3.14925 14.9053 1.9594 16.9631C1.91577 17.0342 1.88683 17.1134 1.87429 17.1959C1.86174 17.2784 1.86585 17.3626 1.88638 17.4435C1.9069 17.5244 1.94341 17.6004 1.99377 17.6669C2.04413 17.7335 2.10731 17.7893 2.17958 17.831C2.25185 17.8728 2.33175 17.8996 2.41457 17.91C2.49738 17.9203 2.58143 17.914 2.66176 17.8914C2.74209 17.8687 2.81708 17.8302 2.88228 17.7781C2.94749 17.726 3.00161 17.6614 3.04143 17.5881C4.51331 15.0443 7.11487 13.5256 10 13.5256C12.8852 13.5256 15.4867 15.0443 16.9586 17.5881C16.9985 17.6614 17.0526 17.726 17.1178 17.7781C17.183 17.8302 17.258 17.8687 17.3383 17.8914C17.4186 17.914 17.5027 17.9203 17.5855 17.91C17.6683 17.8996 17.7482 17.8728 17.8205 17.831C17.8927 17.7893 17.9559 17.7335 18.0063 17.6669C18.0566 17.6004 18.0932 17.5244 18.1137 17.4435C18.1342 17.3626 18.1383 17.2784 18.1258 17.1959C18.1132 17.1134 18.0843 17.0342 18.0407 16.9631ZM5.62503 7.90056C5.62503 7.03527 5.88162 6.18941 6.36235 5.46994C6.84308 4.75048 7.52636 4.18972 8.32579 3.85859C9.12522 3.52746 10.0049 3.44082 10.8535 3.60963C11.7022 3.77844 12.4818 4.19512 13.0936 4.80697C13.7055 5.41883 14.1222 6.19838 14.291 7.04704C14.4598 7.89571 14.3731 8.77538 14.042 9.5748C13.7109 10.3742 13.1501 11.0575 12.4306 11.5382C11.7112 12.019 10.8653 12.2756 10 12.2756C8.84009 12.2743 7.72801 11.813 6.90781 10.9928C6.0876 10.1726 5.62627 9.0605 5.62503 7.90056Z" fill="white"/>
</svg>
