<svg version="1.1" id="Layer_1" xmlns="http://www.w3.org/2000/svg" xmlns:xlink="http://www.w3.org/1999/xlink" x="0px" y="0px"
	 width="100%" viewBox="0 0 496 496" enable-background="new 0 0 496 496" xml:space="preserve">
<path fill="#000000" opacity="1.000000" stroke="none" 
	d="
M204.117126,251.521301 
	C204.677414,244.659180 207.896805,239.035751 209.550659,232.954056 
	C209.768921,232.151459 210.178665,231.386429 210.298569,230.574310 
	C210.649948,228.194748 212.125198,225.192017 209.452606,223.741852 
	C206.842270,222.325455 204.778641,224.816818 203.167374,226.644913 
	C196.176651,234.576294 194.009293,244.599960 191.428650,254.420883 
	C190.625961,257.475616 189.909271,260.555420 189.247131,263.643921 
	C188.624817,266.546692 186.953720,268.408142 184.086761,269.117889 
	C180.969757,269.889526 179.526215,267.953766 178.375336,265.514160 
	C178.195999,265.134003 177.612167,264.944641 176.859695,264.418274 
	C174.308578,266.377838 171.774261,268.477997 169.085220,270.356720 
	C164.114853,273.829285 158.651733,276.373474 152.792480,273.183167 
	C147.086472,270.076294 145.544296,264.460480 145.753006,258.211884 
	C146.223221,244.133987 151.839127,232.502716 162.191238,223.068695 
	C164.596420,220.876831 167.448395,219.519470 170.616089,218.946198 
	C176.574692,217.867844 181.088074,221.575912 181.316406,227.614517 
	C181.777435,239.807373 174.480148,249.204025 160.586258,254.258148 
	C158.528671,255.006638 156.086380,255.505203 156.670929,258.453583 
	C157.232544,261.286407 158.293869,263.997070 161.693176,264.582855 
	C164.288712,265.030121 166.605072,264.137299 168.850006,262.920898 
	C176.482101,258.785522 181.118637,252.221283 183.517639,244.116806 
	C185.732956,236.632874 187.480408,229.009659 189.396133,221.438232 
	C190.050293,218.852829 190.304123,216.179214 193.836533,215.640839 
	C197.153961,215.135193 199.172318,216.543503 200.364716,219.323334 
	C203.191895,219.254761 204.131180,216.961899 205.729126,215.640259 
	C209.333572,212.659134 213.279800,211.110138 217.687103,213.430634 
	C222.265564,215.841248 222.979996,220.294891 221.880005,224.697983 
	C220.027267,232.114273 217.463516,239.350143 215.438675,246.727753 
	C214.734528,249.293335 212.968231,252.935333 216.352509,254.311905 
	C219.663666,255.658737 220.863815,251.659790 222.447098,249.571228 
	C225.819366,245.122681 225.566605,239.526093 226.702759,234.368362 
	C229.035004,223.780533 233.743851,214.636017 242.956604,208.354813 
	C248.325394,204.694366 254.059021,204.260620 257.874878,207.079239 
	C261.635010,209.856705 263.089630,215.652786 261.321198,221.724579 
	C258.366882,231.867844 251.411377,238.016541 241.505966,241.068985 
	C239.353043,241.732407 236.505157,241.541519 236.916245,245.039276 
	C237.319778,248.472656 239.262863,250.453400 242.767212,250.753632 
	C245.366821,250.976364 247.651794,250.184296 249.816315,248.733871 
	C258.522522,242.899902 262.443481,233.926102 265.634552,224.536453 
	C266.860352,220.929550 267.606934,217.151428 268.439240,213.421707 
	C269.155334,210.212952 268.749786,207.370483 266.488983,204.572174 
	C263.316467,200.645447 265.623169,194.892319 270.600159,193.716263 
	C274.127167,192.882828 275.879547,194.644699 276.374786,198.091888 
	C277.429932,205.436310 280.142700,207.093124 287.144501,204.718582 
	C289.058807,204.069397 291.012848,203.095032 292.707092,204.913910 
	C294.368622,206.697739 294.281097,208.919769 293.418121,211.024017 
	C291.145020,216.566727 288.759796,222.063400 286.430756,227.583282 
	C285.128601,230.669388 284.367401,233.900803 283.787872,237.193253 
	C283.358246,239.633865 283.291931,242.191055 285.725189,243.334625 
	C288.648254,244.708420 290.255310,242.228561 291.760254,240.217072 
	C295.878632,234.712433 297.129547,228.140991 298.711426,221.665329 
	C300.995087,212.316696 305.644104,204.340622 313.482361,198.585892 
	C324.199249,190.717712 334.130402,194.818756 336.434814,207.874680 
	C336.572113,208.652481 336.935455,209.390366 337.321289,210.521011 
	C344.285553,208.946793 346.417786,203.751144 347.722931,197.947784 
	C348.716736,193.528610 349.787537,189.535751 355.661469,189.548660 
	C359.573425,189.557266 360.937286,190.801132 359.643463,194.637604 
	C356.559692,203.781723 353.483643,212.936417 351.913666,222.497040 
	C351.391968,225.673965 349.585785,230.087769 353.078522,231.550079 
	C357.131378,233.246857 358.604645,228.405640 360.509491,225.706100 
	C367.344177,216.019943 368.386719,204.300323 371.656128,193.361740 
	C372.129608,191.777588 372.394745,190.050583 373.222900,188.669464 
	C375.041443,185.636612 378.128967,185.106842 381.091492,186.230026 
	C383.980408,187.325302 383.185089,189.973465 382.481781,192.271164 
	C379.560028,201.816757 376.568909,211.339874 374.861786,221.210983 
	C374.488281,223.370743 373.444550,225.903732 375.820099,227.051300 
	C378.465485,228.329224 379.487762,225.449203 380.631165,223.808762 
	C383.897919,219.121811 385.878113,213.802994 387.770264,208.449844 
	C388.368866,206.756287 389.054382,204.559952 391.478333,205.388809 
	C393.607941,206.117035 393.384735,208.265457 393.213318,210.124069 
	C393.167938,210.616180 393.145996,211.219894 392.861389,211.564087 
	C388.462982,216.883408 393.263062,221.851181 393.588623,226.960739 
	C393.741791,229.364761 396.347748,230.722702 398.925354,230.455780 
	C401.444031,230.194977 403.354523,228.694824 403.725586,226.074310 
	C404.292633,222.069946 404.208771,218.162720 401.732666,214.567795 
	C398.997589,210.596832 396.116760,206.635300 394.054810,202.309586 
	C388.926239,191.550400 396.347595,179.035049 407.879456,178.515305 
	C412.049652,178.327347 415.357361,179.799881 417.444458,183.587158 
	C419.676086,187.636826 419.402924,191.597824 416.934082,195.400208 
	C415.544403,197.540543 413.508423,198.768005 410.960602,197.714905 
	C408.186462,196.568253 408.951355,194.278748 409.669556,192.167068 
	C410.598114,189.436859 411.121613,186.358810 407.525024,185.739227 
	C403.796356,185.096893 402.390839,188.119583 402.041901,191.380112 
	C401.519501,196.261200 404.291718,199.955475 406.808472,203.676300 
	C409.417969,207.534302 412.255524,211.204666 413.597992,215.813354 
	C416.170990,224.646484 413.264374,232.139511 405.514313,236.046646 
	C397.421997,240.126328 390.504242,238.296005 384.618530,230.535461 
	C384.435242,230.293808 384.097748,230.169113 383.586517,229.824142 
	C380.317871,232.675766 378.180817,236.883301 373.825623,238.646103 
	C367.897095,241.045776 365.861115,236.672455 363.656097,232.831116 
	C360.698364,232.822525 360.065643,235.298172 358.739868,236.819351 
	C353.640839,242.669937 348.339264,244.788635 344.106689,242.491302 
	C339.741364,240.121902 338.266632,234.732605 340.033722,227.274521 
	C340.867065,223.757431 341.839783,220.273346 342.827423,216.473877 
	C338.591095,216.727203 336.623077,218.268967 335.871338,222.340912 
	C334.649323,228.960052 331.433716,234.861450 327.308350,240.202438 
	C318.217102,251.972443 308.290009,252.532990 298.445648,241.838623 
	C296.542236,241.699570 296.105804,243.370682 295.197510,244.482315 
	C293.516174,246.540085 292.055389,248.879150 290.040894,250.541275 
	C286.505096,253.458572 282.420135,256.057098 277.791046,253.134476 
	C273.363647,250.339157 272.492767,245.627899 273.148956,240.794067 
	C274.209259,232.983643 276.748260,225.590973 280.398010,218.608093 
	C281.506317,216.487564 282.368561,214.738831 279.438995,213.315811 
	C276.282227,211.782455 275.234894,213.650406 274.389008,216.075119 
	C271.432861,224.548599 269.340820,233.355453 264.606995,241.139236 
	C259.698914,249.209503 254.242706,256.673798 244.896072,260.164825 
	C239.320557,262.247314 234.337692,261.379425 230.230804,257.101044 
	C227.100906,253.840485 224.692535,254.048187 222.310776,257.816406 
	C220.687103,260.385193 218.477219,262.417175 215.850204,263.966797 
	C209.535370,267.691711 204.118881,264.799652 203.714340,257.418945 
	C203.614944,255.605499 203.892426,253.771393 204.117126,251.521301 
M318.140778,205.676254 
	C311.982239,213.406342 308.042236,221.962891 308.276276,232.083450 
	C308.346924,235.138672 308.429871,238.358170 311.900330,239.537979 
	C315.643311,240.810425 318.368317,238.737839 320.288910,235.783066 
	C323.559509,230.751389 325.828064,225.230820 327.457031,219.460907 
	C327.672424,218.697983 327.861725,217.499619 327.457092,217.056900 
	C323.999390,213.273926 322.879456,208.516953 322.314056,203.921997 
	C320.294891,203.524139 319.510803,204.455002 318.140778,205.676254 
M241.111008,234.460556 
	C247.972382,231.320786 251.297150,225.788986 251.884537,218.442154 
	C251.990448,217.117508 251.994186,215.677994 250.643539,214.896759 
	C248.956802,213.921112 247.811340,215.173141 246.745453,216.167877 
	C242.087509,220.514999 240.008484,226.331131 237.938202,232.105087 
	C237.178619,234.223526 238.704178,234.657318 241.111008,234.460556 
M165.660538,231.206863 
	C161.884857,235.705704 159.518082,240.789520 158.499725,246.729782 
	C166.149368,246.734695 174.655457,236.286484 173.072449,229.666916 
	C172.636017,227.841904 171.377731,227.120529 169.705078,228.011337 
	C168.410461,228.700806 167.329346,229.791138 165.660538,231.206863 
z"/>
<path fill="#000000" opacity="1.000000" stroke="none" 
	d="
M98.473465,217.579514 
	C105.062424,205.151001 113.241165,194.587906 124.944992,187.099258 
	C128.059006,185.106781 131.424683,183.667465 134.972443,182.688828 
	C149.309036,178.734207 155.610214,188.992050 154.851318,199.445526 
	C154.339493,206.495697 151.603561,213.044510 145.909393,217.867386 
	C144.222610,219.296036 142.261841,220.178345 140.161728,220.788559 
	C138.215271,221.354095 136.421326,221.075027 135.297562,219.302002 
	C134.175568,217.531784 135.316452,216.164749 136.533401,214.925339 
	C141.848434,209.512131 144.182617,202.901642 144.032852,195.433655 
	C143.918182,189.715668 141.010391,187.886612 135.850006,190.384613 
	C126.252571,195.030472 120.341629,203.318710 115.290924,212.246841 
	C107.742287,225.590500 102.943527,239.901917 101.470543,255.193390 
	C101.009224,259.982483 100.745293,265.597992 105.618622,268.204254 
	C110.413956,270.768799 114.560432,267.156860 118.128593,264.138977 
	C126.119583,257.380310 130.613998,248.257660 134.717102,238.893997 
	C135.915680,236.158707 137.176331,233.410660 138.776459,230.903244 
	C140.200333,228.672028 142.575165,227.295349 145.220123,228.358032 
	C148.146225,229.533661 147.376694,232.132965 146.597519,234.385986 
	C141.364288,249.518021 137.875153,265.077972 134.823349,280.770447 
	C134.072159,284.633118 134.315659,286.305206 138.734985,287.246338 
	C149.968628,289.638611 161.159470,292.342041 172.604019,293.305115 
	C184.329453,294.291840 195.809235,291.935944 207.081223,288.931763 
	C226.409210,283.780518 244.674026,275.418274 263.901062,269.917480 
	C286.671173,263.403015 309.506042,257.392639 333.477448,257.861511 
	C339.687714,257.983002 345.745819,258.960052 351.573669,261.135956 
	C353.122040,261.714050 354.723541,262.361725 356.023682,263.344025 
	C358.035797,264.864227 360.211273,266.848022 358.693817,269.595917 
	C357.119690,272.446350 354.528656,270.896790 352.531799,269.881531 
	C345.880493,266.499939 338.670685,266.263458 331.545380,266.421875 
	C313.447693,266.824188 295.981812,271.016022 278.581970,275.700012 
	C257.454071,281.387634 237.554855,290.467438 216.917313,297.509125 
	C194.667496,305.100922 172.669891,306.173218 150.443100,297.825195 
	C146.091263,296.190735 141.498703,295.204651 137.039963,293.844818 
	C133.776871,292.849579 131.976944,293.218353 131.099854,297.266083 
	C129.260437,305.754852 126.273209,313.881653 120.648659,320.782043 
	C114.837402,327.911499 107.309563,330.513763 98.404800,329.149048 
	C90.548965,327.945099 85.693916,318.089783 88.401764,309.311523 
	C92.178085,297.069489 101.384590,290.841370 112.906876,287.218018 
	C116.200241,286.182404 121.057190,287.149658 122.654320,284.480621 
	C125.029907,280.510681 125.504906,275.388824 126.690559,270.732208 
	C126.967438,269.644714 127.193779,268.422607 126.358452,267.310699 
	C124.342690,266.640015 123.923325,268.512421 123.037872,269.529175 
	C120.081406,272.924072 117.241631,276.403381 112.908669,278.223572 
	C103.403748,282.216339 94.917908,279.026276 90.596008,269.615723 
	C85.921852,259.438202 87.547241,249.096100 90.131882,238.795715 
	C91.963600,231.495911 94.760025,224.551865 98.473465,217.579514 
M108.677452,298.149445 
	C104.698891,301.775452 101.147156,305.624542 100.093689,311.234528 
	C99.498451,314.404297 99.358093,317.519257 102.423897,319.183197 
	C105.715179,320.969604 108.815125,319.789886 111.436668,317.138947 
	C114.969330,313.566681 116.577118,308.982117 118.111717,304.428986 
	C119.275421,300.976318 122.368469,296.293549 119.279930,293.957306 
	C116.206131,291.632263 112.394951,295.652283 108.677452,298.149445 
z"/>
</svg>