<svg width="400" height="182" viewBox="0 0 400 182" fill="none" xmlns="http://www.w3.org/2000/svg">
<path d="M390.791 22.5249C398.57 24.9375 401.646 13.1963 399.153 7.30567C393.323 -6.42585 372.196 0.992792 369.402 14.7645C365.784 32.6376 383.313 39.1917 383.514 53.8079C383.594 60.181 378.991 64.5438 372.719 62.1312C368.035 60.3218 368.517 55.6374 369.02 52.682C369.221 51.5159 368.477 50.3498 367.311 50.1689C366.366 50.0483 365.603 49.5859 365.482 48.3595C365.221 45.585 373.523 32.7582 366.527 32.0345C365.804 31.954 365.14 31.8736 364.598 32.517C364.195 32.9794 361.381 42.1873 360.537 44.1174C359.069 47.4146 353.34 58.0902 350.144 59.1758C344.013 61.2868 346.847 51.0535 347.45 47.6759C349.581 35.8342 354.044 23.9122 356.918 12.171C356.999 11.8493 356.999 11.5277 356.918 11.206L356.798 10.6431C356.597 9.71823 355.793 9.05478 354.848 9.01457C351.853 8.91405 347.189 8.91405 345.802 10.8039C345.681 10.9848 345.601 11.1859 345.541 11.407L336.274 46.4294C336.233 46.6104 336.153 46.7712 336.073 46.932C333.479 51.3752 326.745 65.3279 321.519 65.2474C319.549 65.2072 318.624 63.237 318.403 61.5884C317.498 55.2554 321.579 41.0012 323.388 34.3666C324.795 29.1595 328.514 20.7959 329.037 15.9708C329.198 14.5635 328.896 13.7191 327.409 13.4376C325.72 13.1159 318.845 13.7392 317.599 14.865C316.272 16.0713 314.041 28.8579 311.93 32.1953C310.08 35.1105 305.417 38.468 301.939 38.8701C300.874 38.9907 301.376 38.8298 301.256 38.1463C299.929 31.0895 299.085 24.1333 291.566 20.8965C276.349 14.3624 261.896 33.0598 257.172 45.4644C253.935 53.9888 254.578 60.7641 249.935 69.0673C248.307 71.9624 244.648 78.4361 241.251 78.9991C235.119 80.0043 236.064 72.7063 236.748 68.625C238.537 58.0701 244.608 49.1436 247.884 39.634C248.749 37.1209 249.794 33.3413 247.362 31.3308C244.467 28.8981 240.527 32.7783 237.371 33.0397C234.416 33.3011 231.963 32.7381 229.612 30.9689C225.249 27.7119 229.129 24.8772 226.757 20.5949C223.139 14.0608 214.656 21.0975 214.213 26.0231C213.811 30.4261 218.314 32.3762 218.897 34.3264C219.962 37.9452 217.51 47.7764 216.404 51.717C213.409 62.3121 207.399 75.9029 198.674 82.9396C190.392 89.6143 179.477 89.5138 179.276 77.7928C179.276 76.7272 180.08 75.8225 181.145 75.6818C193.086 74.1136 203.82 66.6548 208.122 55.1549C215.037 36.6585 202.212 25.2994 185.769 37.2014C175.838 44.3787 168.963 59.0753 167.214 71.0175C165.948 79.6223 166.993 80.4466 161.445 87.7647C159.777 89.9762 154.409 96.47 153.042 90.3984C151.454 83.3015 159.756 64.584 161.425 56.4014C162.611 50.6112 162.33 43.9565 155.776 41.6445C148.037 38.9103 142.69 43.8761 138.127 49.3848C136.88 50.8927 134.388 50.0081 134.448 48.0378C134.488 46.9119 134.327 45.9268 133.744 45.3438C132.659 44.2581 125.925 44.6803 124.799 45.7057C124.115 46.3289 122.668 52.4608 122.266 53.9285C118.004 69.2081 117.321 85.1109 105.26 96.6309C96.8568 104.653 82.1823 109.377 82.8858 93.5146C82.926 92.5496 83.6296 91.7052 84.5744 91.5444C99.8521 88.971 114.627 73.6311 112.838 57.6881C111.994 50.1488 104.757 47.6156 98.1233 49.3446C79.1267 54.2904 60.5925 96.0076 74.8852 111.307C83.5693 120.596 96.7161 112.775 105.3 104.19C107.049 102.441 110.024 103.487 110.325 105.939C110.426 106.764 110.727 107.528 111.35 108.131C112.416 109.196 114.728 109.035 116.919 108.573C119.411 108.05 121.381 106.12 122.025 103.647C123.593 97.5959 124.538 91.283 126.186 85.2315C128.699 76.0437 132.759 63.82 139.493 56.9241C143.454 52.883 149.886 49.9075 149.002 58.5928C148.258 65.6897 143.192 75.7622 141.363 83.2613C139.976 88.9911 137.725 100.612 144.64 103.688C152.238 107.065 159.254 99.908 163.737 92.9718C165.385 90.4386 168.983 90.4587 170.732 92.9115C170.913 93.1528 171.094 93.4141 171.315 93.6554C173.486 96.2087 177.326 98.581 180.683 98.9831C197.569 101.034 211.52 80.6677 217.329 67.1976C220.947 58.8139 223.118 49.7869 226.375 41.3228C226.797 40.2171 228.064 39.7145 229.149 40.1769C230.516 40.78 231.903 41.3429 233.33 41.6244C234.677 41.8858 235.421 43.3333 234.818 44.5597C229.25 55.8786 223.159 68.2832 224.445 81.1503C224.908 85.7542 227.702 89.9963 232.567 90.6598C241.21 91.846 247.864 83.4824 252.347 76.2849C253.211 74.8977 255.262 75.0183 255.965 76.5061C259.182 83.3015 265.233 85.7341 273.635 84.8294C287.043 83.3819 299.225 61.3873 300.452 48.3394C300.532 47.5352 301.095 46.8717 301.859 46.5903C304.552 45.6453 307.427 45.0422 309.377 42.7101C309.9 42.8709 309.598 43.856 309.497 44.2983C307.769 52.4809 300.291 68.1224 308.171 75.2395C316.091 82.3766 325.66 73.0682 331.007 65.167C332.052 63.619 334.464 64.1618 334.766 66.0114C334.786 66.1521 334.826 66.313 334.887 66.4537C338.686 76.5865 347.109 72.8872 352.938 66.7151C354.567 65.0062 355.994 62.2719 357.542 60.6636C357.924 60.2615 357.863 60.2012 358.547 60.3419C365.562 77.7325 392.801 72.5857 394.711 54.1697C396.48 37.1813 380.317 29.1796 379.574 16.5538C378.93 5.51635 393.424 3.64661 390.228 15.4079C389.544 17.9411 386.589 21.1176 390.831 22.4244L390.791 22.5249ZM180.643 65.7098C182.331 57.6278 190.493 42.308 196.262 42.3683C201.247 42.4286 198.031 52.6016 197.006 55.2956C194.493 61.8497 189.709 66.4135 183.155 68.1827C181.668 68.5848 180.341 67.2177 180.643 65.7098ZM84.7553 80.7482C86.4238 74.9178 88.8361 69.2483 92.5148 64.403C94.1631 62.2317 99.3696 56.0797 102.385 59.0954C104.636 61.327 101.179 70.6154 99.8119 73.1888C97.2187 78.0742 92.6153 81.8941 87.2681 83.3618C85.7202 83.784 84.293 82.3163 84.7352 80.7683L84.7553 80.7482ZM290.963 46.7109C288.672 55.5369 283.204 71.6206 275.083 74.1739C265.454 77.1896 265.413 65.1469 266.057 58.7938C266.74 51.8778 271.786 40.0562 276.068 34.5475C277.636 32.517 279.626 30.1848 282.098 29.2399C283.385 28.7574 284.792 29.6018 284.913 30.989C285.395 35.8946 285.013 42.2678 289.797 44.2983C290.722 44.7004 291.204 45.7258 290.943 46.7109H290.963Z" fill="black"/>
<path d="M315.548 98.762C283.485 89.8556 230.315 104.633 198.855 114.926C164.36 126.205 134.77 141.907 96.897 138.268C83.3482 136.961 70.2215 132.839 56.7932 130.769C55.5871 130.588 54.8031 129.422 55.0845 128.235C58.4617 114.283 60.693 100.069 64.3717 86.1764C66.0603 79.8435 70.2014 70.2535 71.0658 64.4835C71.6889 60.2816 70.121 59.4573 66.0804 60.0001C62.1806 60.5228 60.8338 63.82 59.3462 66.9764C53.7578 78.8181 50.4007 89.172 41.0733 99.1239C27.9064 113.197 14.1364 115.348 15.8652 91.0418C17.393 69.6906 30.6202 37.1411 45.8778 21.9419C50.8832 16.9559 67.0453 4.24975 68.2113 18.6045C68.8545 26.4856 65.4372 36.94 60.1503 42.8307C58.4416 44.7406 55.2856 45.2634 56.8334 48.5806C57.8586 50.772 61.9394 50.6112 63.9094 50.0282C84.3935 43.8761 89.2984 -4.01328 55.969 5.37562C22.7201 14.7444 -6.18684 71.3191 1.43188 104.009C6.3167 124.918 27.5647 127.351 40.3095 111.669C40.3497 111.629 40.3899 111.569 40.41 111.528L44.0083 106.482C45.335 104.633 48.2498 105.939 47.7271 108.171L43.0836 127.934C42.8825 128.819 42.1186 129.442 41.2141 129.522C26.1575 130.749 9.93509 138.127 3.04005 152.14C-5.36265 169.249 4.28639 186.097 24.1875 181.111C41.5558 176.768 49.3353 155.417 52.6522 139.353C52.8934 138.228 53.9789 137.464 55.1046 137.705C72.8549 141.424 89.801 149.345 108.114 150.512C143.614 152.763 179.979 132.739 213.208 122.003C239.482 113.499 290.159 99.5662 316.372 107.688C319.126 108.533 324.051 111.951 326.303 111.267C326.886 111.086 327.348 110.624 327.529 110.041C329.519 103.306 320.393 100.129 315.508 98.7821L315.548 98.762ZM39.8672 140.037C37.857 150.572 32.3691 169.289 22.2577 171.36C18.2373 172.184 14.7395 169.913 14.0359 165.831C11.9252 153.668 25.2931 139.816 37.4348 137.604C38.8822 137.343 40.1486 138.589 39.8672 140.037Z" fill="black"/>
</svg>
